<mxfile host="app.diagrams.net" modified="2023-04-16T20:44:45.217Z" agent="5.0 (Windows NT 10.0; Win64; x64) AppleWebKit/537.36 (KHTML, like Gecko) Chrome/112.0.0.0 Safari/537.36" etag="u0jc5UPwEH4zruE3wRTF" version="20.8.20" type="github">
  <diagram name="Page-1" id="ERi-LSTTPaxUKUVHBc7q">
    <mxGraphModel dx="2899" dy="2180" grid="1" gridSize="10" guides="1" tooltips="1" connect="1" arrows="1" fold="1" page="1" pageScale="1" pageWidth="850" pageHeight="1100" math="0" shadow="0">
      <root>
        <mxCell id="0" />
        <mxCell id="1" parent="0" />
        <mxCell id="Vin9euDDo59lXe7KIKDc-31" value="Game" style="swimlane;fontStyle=1;align=center;verticalAlign=top;childLayout=stackLayout;horizontal=1;startSize=26;horizontalStack=0;resizeParent=1;resizeParentMax=0;resizeLast=0;collapsible=1;marginBottom=0;" vertex="1" parent="1">
          <mxGeometry x="-60" y="-60" width="410" height="424" as="geometry" />
        </mxCell>
        <mxCell id="Vin9euDDo59lXe7KIKDc-37" value="- Players: List&lt;Player&gt;" style="text;strokeColor=none;fillColor=none;align=left;verticalAlign=top;spacingLeft=4;spacingRight=4;overflow=hidden;rotatable=0;points=[[0,0.5],[1,0.5]];portConstraint=eastwest;" vertex="1" parent="Vin9euDDo59lXe7KIKDc-31">
          <mxGeometry y="26" width="410" height="26" as="geometry" />
        </mxCell>
        <mxCell id="Vin9euDDo59lXe7KIKDc-38" value="- items: List&lt;Item&gt;" style="text;strokeColor=none;fillColor=none;align=left;verticalAlign=top;spacingLeft=4;spacingRight=4;overflow=hidden;rotatable=0;points=[[0,0.5],[1,0.5]];portConstraint=eastwest;" vertex="1" parent="Vin9euDDo59lXe7KIKDc-31">
          <mxGeometry y="52" width="410" height="26" as="geometry" />
        </mxCell>
        <mxCell id="Vin9euDDo59lXe7KIKDc-36" value="- pokemonEvolution: List&lt;PokemonEvolution&gt;" style="text;strokeColor=none;fillColor=none;align=left;verticalAlign=top;spacingLeft=4;spacingRight=4;overflow=hidden;rotatable=0;points=[[0,0.5],[1,0.5]];portConstraint=eastwest;" vertex="1" parent="Vin9euDDo59lXe7KIKDc-31">
          <mxGeometry y="78" width="410" height="26" as="geometry" />
        </mxCell>
        <mxCell id="Vin9euDDo59lXe7KIKDc-35" value="- NPCs: List&lt;NPC&gt; " style="text;strokeColor=none;fillColor=none;align=left;verticalAlign=top;spacingLeft=4;spacingRight=4;overflow=hidden;rotatable=0;points=[[0,0.5],[1,0.5]];portConstraint=eastwest;" vertex="1" parent="Vin9euDDo59lXe7KIKDc-31">
          <mxGeometry y="104" width="410" height="26" as="geometry" />
        </mxCell>
        <mxCell id="Vin9euDDo59lXe7KIKDc-32" value="- quests: List&lt;Quest&gt;   " style="text;strokeColor=none;fillColor=none;align=left;verticalAlign=top;spacingLeft=4;spacingRight=4;overflow=hidden;rotatable=0;points=[[0,0.5],[1,0.5]];portConstraint=eastwest;" vertex="1" parent="Vin9euDDo59lXe7KIKDc-31">
          <mxGeometry y="130" width="410" height="26" as="geometry" />
        </mxCell>
        <mxCell id="Vin9euDDo59lXe7KIKDc-33" value="" style="line;strokeWidth=1;fillColor=none;align=left;verticalAlign=middle;spacingTop=-1;spacingLeft=3;spacingRight=3;rotatable=0;labelPosition=right;points=[];portConstraint=eastwest;strokeColor=inherit;" vertex="1" parent="Vin9euDDo59lXe7KIKDc-31">
          <mxGeometry y="156" width="410" height="8" as="geometry" />
        </mxCell>
        <mxCell id="Vin9euDDo59lXe7KIKDc-47" value="+ addPlayer(player: Player): void" style="text;strokeColor=none;fillColor=none;align=left;verticalAlign=top;spacingLeft=4;spacingRight=4;overflow=hidden;rotatable=0;points=[[0,0.5],[1,0.5]];portConstraint=eastwest;" vertex="1" parent="Vin9euDDo59lXe7KIKDc-31">
          <mxGeometry y="164" width="410" height="26" as="geometry" />
        </mxCell>
        <mxCell id="Vin9euDDo59lXe7KIKDc-46" value="+ removePlayer(player: Player): void" style="text;strokeColor=none;fillColor=none;align=left;verticalAlign=top;spacingLeft=4;spacingRight=4;overflow=hidden;rotatable=0;points=[[0,0.5],[1,0.5]];portConstraint=eastwest;" vertex="1" parent="Vin9euDDo59lXe7KIKDc-31">
          <mxGeometry y="190" width="410" height="26" as="geometry" />
        </mxCell>
        <mxCell id="Vin9euDDo59lXe7KIKDc-45" value="+ addItem(item: Item): void" style="text;strokeColor=none;fillColor=none;align=left;verticalAlign=top;spacingLeft=4;spacingRight=4;overflow=hidden;rotatable=0;points=[[0,0.5],[1,0.5]];portConstraint=eastwest;" vertex="1" parent="Vin9euDDo59lXe7KIKDc-31">
          <mxGeometry y="216" width="410" height="26" as="geometry" />
        </mxCell>
        <mxCell id="Vin9euDDo59lXe7KIKDc-44" value="+ removeItem(item: Item): void" style="text;strokeColor=none;fillColor=none;align=left;verticalAlign=top;spacingLeft=4;spacingRight=4;overflow=hidden;rotatable=0;points=[[0,0.5],[1,0.5]];portConstraint=eastwest;" vertex="1" parent="Vin9euDDo59lXe7KIKDc-31">
          <mxGeometry y="242" width="410" height="26" as="geometry" />
        </mxCell>
        <mxCell id="Vin9euDDo59lXe7KIKDc-43" value="+ addPokemonEvolution(pokemonEvolution: PokemonEvolution): void " style="text;strokeColor=none;fillColor=none;align=left;verticalAlign=top;spacingLeft=4;spacingRight=4;overflow=hidden;rotatable=0;points=[[0,0.5],[1,0.5]];portConstraint=eastwest;" vertex="1" parent="Vin9euDDo59lXe7KIKDc-31">
          <mxGeometry y="268" width="410" height="26" as="geometry" />
        </mxCell>
        <mxCell id="Vin9euDDo59lXe7KIKDc-42" value="+ removePokemonEvolution(pokemonEvolution: PokemonEvolution): void" style="text;strokeColor=none;fillColor=none;align=left;verticalAlign=top;spacingLeft=4;spacingRight=4;overflow=hidden;rotatable=0;points=[[0,0.5],[1,0.5]];portConstraint=eastwest;" vertex="1" parent="Vin9euDDo59lXe7KIKDc-31">
          <mxGeometry y="294" width="410" height="26" as="geometry" />
        </mxCell>
        <mxCell id="Vin9euDDo59lXe7KIKDc-41" value="+ addNPC(npc: NPC): void" style="text;strokeColor=none;fillColor=none;align=left;verticalAlign=top;spacingLeft=4;spacingRight=4;overflow=hidden;rotatable=0;points=[[0,0.5],[1,0.5]];portConstraint=eastwest;" vertex="1" parent="Vin9euDDo59lXe7KIKDc-31">
          <mxGeometry y="320" width="410" height="26" as="geometry" />
        </mxCell>
        <mxCell id="Vin9euDDo59lXe7KIKDc-40" value="+ removeNPC(npc: NPC): void" style="text;strokeColor=none;fillColor=none;align=left;verticalAlign=top;spacingLeft=4;spacingRight=4;overflow=hidden;rotatable=0;points=[[0,0.5],[1,0.5]];portConstraint=eastwest;" vertex="1" parent="Vin9euDDo59lXe7KIKDc-31">
          <mxGeometry y="346" width="410" height="26" as="geometry" />
        </mxCell>
        <mxCell id="Vin9euDDo59lXe7KIKDc-39" value="+ addQuest(quest: Quest): void" style="text;strokeColor=none;fillColor=none;align=left;verticalAlign=top;spacingLeft=4;spacingRight=4;overflow=hidden;rotatable=0;points=[[0,0.5],[1,0.5]];portConstraint=eastwest;" vertex="1" parent="Vin9euDDo59lXe7KIKDc-31">
          <mxGeometry y="372" width="410" height="26" as="geometry" />
        </mxCell>
        <mxCell id="Vin9euDDo59lXe7KIKDc-34" value="+ removeQuest(quest: Quest): void" style="text;strokeColor=none;fillColor=none;align=left;verticalAlign=top;spacingLeft=4;spacingRight=4;overflow=hidden;rotatable=0;points=[[0,0.5],[1,0.5]];portConstraint=eastwest;" vertex="1" parent="Vin9euDDo59lXe7KIKDc-31">
          <mxGeometry y="398" width="410" height="26" as="geometry" />
        </mxCell>
        <mxCell id="Vin9euDDo59lXe7KIKDc-48" value="Player" style="swimlane;fontStyle=1;align=center;verticalAlign=top;childLayout=stackLayout;horizontal=1;startSize=26;horizontalStack=0;resizeParent=1;resizeParentMax=0;resizeLast=0;collapsible=1;marginBottom=0;" vertex="1" parent="1">
          <mxGeometry x="460" y="-60" width="290" height="450" as="geometry" />
        </mxCell>
        <mxCell id="Vin9euDDo59lXe7KIKDc-49" value="- name: String " style="text;strokeColor=none;fillColor=none;align=left;verticalAlign=top;spacingLeft=4;spacingRight=4;overflow=hidden;rotatable=0;points=[[0,0.5],[1,0.5]];portConstraint=eastwest;" vertex="1" parent="Vin9euDDo59lXe7KIKDc-48">
          <mxGeometry y="26" width="290" height="26" as="geometry" />
        </mxCell>
        <mxCell id="Vin9euDDo59lXe7KIKDc-56" value="- level: int  " style="text;strokeColor=none;fillColor=none;align=left;verticalAlign=top;spacingLeft=4;spacingRight=4;overflow=hidden;rotatable=0;points=[[0,0.5],[1,0.5]];portConstraint=eastwest;" vertex="1" parent="Vin9euDDo59lXe7KIKDc-48">
          <mxGeometry y="52" width="290" height="26" as="geometry" />
        </mxCell>
        <mxCell id="Vin9euDDo59lXe7KIKDc-55" value="- inventory: List&lt;Item&gt;" style="text;strokeColor=none;fillColor=none;align=left;verticalAlign=top;spacingLeft=4;spacingRight=4;overflow=hidden;rotatable=0;points=[[0,0.5],[1,0.5]];portConstraint=eastwest;" vertex="1" parent="Vin9euDDo59lXe7KIKDc-48">
          <mxGeometry y="78" width="290" height="26" as="geometry" />
        </mxCell>
        <mxCell id="Vin9euDDo59lXe7KIKDc-54" value="- pokemon: List&lt;Pokemon&gt;" style="text;strokeColor=none;fillColor=none;align=left;verticalAlign=top;spacingLeft=4;spacingRight=4;overflow=hidden;rotatable=0;points=[[0,0.5],[1,0.5]];portConstraint=eastwest;" vertex="1" parent="Vin9euDDo59lXe7KIKDc-48">
          <mxGeometry y="104" width="290" height="26" as="geometry" />
        </mxCell>
        <mxCell id="Vin9euDDo59lXe7KIKDc-53" value="- quests: List&lt;Quest&gt;" style="text;strokeColor=none;fillColor=none;align=left;verticalAlign=top;spacingLeft=4;spacingRight=4;overflow=hidden;rotatable=0;points=[[0,0.5],[1,0.5]];portConstraint=eastwest;" vertex="1" parent="Vin9euDDo59lXe7KIKDc-48">
          <mxGeometry y="130" width="290" height="26" as="geometry" />
        </mxCell>
        <mxCell id="Vin9euDDo59lXe7KIKDc-50" value="" style="line;strokeWidth=1;fillColor=none;align=left;verticalAlign=middle;spacingTop=-1;spacingLeft=3;spacingRight=3;rotatable=0;labelPosition=right;points=[];portConstraint=eastwest;strokeColor=inherit;" vertex="1" parent="Vin9euDDo59lXe7KIKDc-48">
          <mxGeometry y="156" width="290" height="8" as="geometry" />
        </mxCell>
        <mxCell id="Vin9euDDo59lXe7KIKDc-51" value="+ getName(): String" style="text;strokeColor=none;fillColor=none;align=left;verticalAlign=top;spacingLeft=4;spacingRight=4;overflow=hidden;rotatable=0;points=[[0,0.5],[1,0.5]];portConstraint=eastwest;" vertex="1" parent="Vin9euDDo59lXe7KIKDc-48">
          <mxGeometry y="164" width="290" height="26" as="geometry" />
        </mxCell>
        <mxCell id="Vin9euDDo59lXe7KIKDc-66" value="+ getLevel(): int " style="text;strokeColor=none;fillColor=none;align=left;verticalAlign=top;spacingLeft=4;spacingRight=4;overflow=hidden;rotatable=0;points=[[0,0.5],[1,0.5]];portConstraint=eastwest;" vertex="1" parent="Vin9euDDo59lXe7KIKDc-48">
          <mxGeometry y="190" width="290" height="26" as="geometry" />
        </mxCell>
        <mxCell id="Vin9euDDo59lXe7KIKDc-65" value="+ getInventory(): List&lt;Item&gt;" style="text;strokeColor=none;fillColor=none;align=left;verticalAlign=top;spacingLeft=4;spacingRight=4;overflow=hidden;rotatable=0;points=[[0,0.5],[1,0.5]];portConstraint=eastwest;" vertex="1" parent="Vin9euDDo59lXe7KIKDc-48">
          <mxGeometry y="216" width="290" height="26" as="geometry" />
        </mxCell>
        <mxCell id="Vin9euDDo59lXe7KIKDc-64" value="+ getPokemon(): List&lt;Pokemon&gt;" style="text;strokeColor=none;fillColor=none;align=left;verticalAlign=top;spacingLeft=4;spacingRight=4;overflow=hidden;rotatable=0;points=[[0,0.5],[1,0.5]];portConstraint=eastwest;" vertex="1" parent="Vin9euDDo59lXe7KIKDc-48">
          <mxGeometry y="242" width="290" height="26" as="geometry" />
        </mxCell>
        <mxCell id="Vin9euDDo59lXe7KIKDc-63" value="+ getQuests(): List&lt;Quest&gt;" style="text;strokeColor=none;fillColor=none;align=left;verticalAlign=top;spacingLeft=4;spacingRight=4;overflow=hidden;rotatable=0;points=[[0,0.5],[1,0.5]];portConstraint=eastwest;" vertex="1" parent="Vin9euDDo59lXe7KIKDc-48">
          <mxGeometry y="268" width="290" height="26" as="geometry" />
        </mxCell>
        <mxCell id="Vin9euDDo59lXe7KIKDc-62" value="+ addItemToInventory(item: Item): void" style="text;strokeColor=none;fillColor=none;align=left;verticalAlign=top;spacingLeft=4;spacingRight=4;overflow=hidden;rotatable=0;points=[[0,0.5],[1,0.5]];portConstraint=eastwest;" vertex="1" parent="Vin9euDDo59lXe7KIKDc-48">
          <mxGeometry y="294" width="290" height="26" as="geometry" />
        </mxCell>
        <mxCell id="Vin9euDDo59lXe7KIKDc-61" value="+ removeItemFromInventory(item: Item): void" style="text;strokeColor=none;fillColor=none;align=left;verticalAlign=top;spacingLeft=4;spacingRight=4;overflow=hidden;rotatable=0;points=[[0,0.5],[1,0.5]];portConstraint=eastwest;" vertex="1" parent="Vin9euDDo59lXe7KIKDc-48">
          <mxGeometry y="320" width="290" height="26" as="geometry" />
        </mxCell>
        <mxCell id="Vin9euDDo59lXe7KIKDc-60" value="+ addPokemon(pokemon: Pokemon): void" style="text;strokeColor=none;fillColor=none;align=left;verticalAlign=top;spacingLeft=4;spacingRight=4;overflow=hidden;rotatable=0;points=[[0,0.5],[1,0.5]];portConstraint=eastwest;" vertex="1" parent="Vin9euDDo59lXe7KIKDc-48">
          <mxGeometry y="346" width="290" height="26" as="geometry" />
        </mxCell>
        <mxCell id="Vin9euDDo59lXe7KIKDc-59" value="+ removePokemon(pokemon: Pokemon): void" style="text;strokeColor=none;fillColor=none;align=left;verticalAlign=top;spacingLeft=4;spacingRight=4;overflow=hidden;rotatable=0;points=[[0,0.5],[1,0.5]];portConstraint=eastwest;" vertex="1" parent="Vin9euDDo59lXe7KIKDc-48">
          <mxGeometry y="372" width="290" height="26" as="geometry" />
        </mxCell>
        <mxCell id="Vin9euDDo59lXe7KIKDc-58" value="+ addQuest(quest: Quest): void" style="text;strokeColor=none;fillColor=none;align=left;verticalAlign=top;spacingLeft=4;spacingRight=4;overflow=hidden;rotatable=0;points=[[0,0.5],[1,0.5]];portConstraint=eastwest;" vertex="1" parent="Vin9euDDo59lXe7KIKDc-48">
          <mxGeometry y="398" width="290" height="26" as="geometry" />
        </mxCell>
        <mxCell id="Vin9euDDo59lXe7KIKDc-57" value="+ removeQuest(quest: Quest): void" style="text;strokeColor=none;fillColor=none;align=left;verticalAlign=top;spacingLeft=4;spacingRight=4;overflow=hidden;rotatable=0;points=[[0,0.5],[1,0.5]];portConstraint=eastwest;" vertex="1" parent="Vin9euDDo59lXe7KIKDc-48">
          <mxGeometry y="424" width="290" height="26" as="geometry" />
        </mxCell>
        <mxCell id="Vin9euDDo59lXe7KIKDc-192" style="edgeStyle=orthogonalEdgeStyle;rounded=0;orthogonalLoop=1;jettySize=auto;html=1;exitX=0.5;exitY=0;exitDx=0;exitDy=0;" edge="1" parent="1" source="Vin9euDDo59lXe7KIKDc-67" target="Vin9euDDo59lXe7KIKDc-161">
          <mxGeometry relative="1" as="geometry" />
        </mxCell>
        <mxCell id="Vin9euDDo59lXe7KIKDc-67" value="Item" style="swimlane;fontStyle=1;align=center;verticalAlign=top;childLayout=stackLayout;horizontal=1;startSize=26;horizontalStack=0;resizeParent=1;resizeParentMax=0;resizeLast=0;collapsible=1;marginBottom=0;" vertex="1" parent="1">
          <mxGeometry x="790" y="-345" width="160" height="190" as="geometry" />
        </mxCell>
        <mxCell id="Vin9euDDo59lXe7KIKDc-73" value="- name: String " style="text;strokeColor=none;fillColor=none;align=left;verticalAlign=top;spacingLeft=4;spacingRight=4;overflow=hidden;rotatable=0;points=[[0,0.5],[1,0.5]];portConstraint=eastwest;" vertex="1" parent="Vin9euDDo59lXe7KIKDc-67">
          <mxGeometry y="26" width="160" height="26" as="geometry" />
        </mxCell>
        <mxCell id="Vin9euDDo59lXe7KIKDc-72" value="- description: String" style="text;strokeColor=none;fillColor=none;align=left;verticalAlign=top;spacingLeft=4;spacingRight=4;overflow=hidden;rotatable=0;points=[[0,0.5],[1,0.5]];portConstraint=eastwest;" vertex="1" parent="Vin9euDDo59lXe7KIKDc-67">
          <mxGeometry y="52" width="160" height="26" as="geometry" />
        </mxCell>
        <mxCell id="Vin9euDDo59lXe7KIKDc-68" value="- type: ItemType" style="text;strokeColor=none;fillColor=none;align=left;verticalAlign=top;spacingLeft=4;spacingRight=4;overflow=hidden;rotatable=0;points=[[0,0.5],[1,0.5]];portConstraint=eastwest;" vertex="1" parent="Vin9euDDo59lXe7KIKDc-67">
          <mxGeometry y="78" width="160" height="26" as="geometry" />
        </mxCell>
        <mxCell id="Vin9euDDo59lXe7KIKDc-69" value="" style="line;strokeWidth=1;fillColor=none;align=left;verticalAlign=middle;spacingTop=-1;spacingLeft=3;spacingRight=3;rotatable=0;labelPosition=right;points=[];portConstraint=eastwest;strokeColor=inherit;" vertex="1" parent="Vin9euDDo59lXe7KIKDc-67">
          <mxGeometry y="104" width="160" height="8" as="geometry" />
        </mxCell>
        <mxCell id="Vin9euDDo59lXe7KIKDc-75" value="+ getName(): String " style="text;strokeColor=none;fillColor=none;align=left;verticalAlign=top;spacingLeft=4;spacingRight=4;overflow=hidden;rotatable=0;points=[[0,0.5],[1,0.5]];portConstraint=eastwest;" vertex="1" parent="Vin9euDDo59lXe7KIKDc-67">
          <mxGeometry y="112" width="160" height="26" as="geometry" />
        </mxCell>
        <mxCell id="Vin9euDDo59lXe7KIKDc-74" value="+ getDescription(): String " style="text;strokeColor=none;fillColor=none;align=left;verticalAlign=top;spacingLeft=4;spacingRight=4;overflow=hidden;rotatable=0;points=[[0,0.5],[1,0.5]];portConstraint=eastwest;" vertex="1" parent="Vin9euDDo59lXe7KIKDc-67">
          <mxGeometry y="138" width="160" height="26" as="geometry" />
        </mxCell>
        <mxCell id="Vin9euDDo59lXe7KIKDc-70" value="+ getType(): ItemType" style="text;strokeColor=none;fillColor=none;align=left;verticalAlign=top;spacingLeft=4;spacingRight=4;overflow=hidden;rotatable=0;points=[[0,0.5],[1,0.5]];portConstraint=eastwest;" vertex="1" parent="Vin9euDDo59lXe7KIKDc-67">
          <mxGeometry y="164" width="160" height="26" as="geometry" />
        </mxCell>
        <mxCell id="Vin9euDDo59lXe7KIKDc-76" value="PokemonEvolution" style="swimlane;fontStyle=1;align=center;verticalAlign=top;childLayout=stackLayout;horizontal=1;startSize=26;horizontalStack=0;resizeParent=1;resizeParentMax=0;resizeLast=0;collapsible=1;marginBottom=0;" vertex="1" parent="1">
          <mxGeometry x="490" y="490" width="180" height="190" as="geometry" />
        </mxCell>
        <mxCell id="Vin9euDDo59lXe7KIKDc-81" value="- pokemonId: int" style="text;strokeColor=none;fillColor=none;align=left;verticalAlign=top;spacingLeft=4;spacingRight=4;overflow=hidden;rotatable=0;points=[[0,0.5],[1,0.5]];portConstraint=eastwest;" vertex="1" parent="Vin9euDDo59lXe7KIKDc-76">
          <mxGeometry y="26" width="180" height="26" as="geometry" />
        </mxCell>
        <mxCell id="Vin9euDDo59lXe7KIKDc-80" value="- evolvedPokemonId: int" style="text;strokeColor=none;fillColor=none;align=left;verticalAlign=top;spacingLeft=4;spacingRight=4;overflow=hidden;rotatable=0;points=[[0,0.5],[1,0.5]];portConstraint=eastwest;" vertex="1" parent="Vin9euDDo59lXe7KIKDc-76">
          <mxGeometry y="52" width="180" height="26" as="geometry" />
        </mxCell>
        <mxCell id="Vin9euDDo59lXe7KIKDc-77" value="- levelRequirement: int" style="text;strokeColor=none;fillColor=none;align=left;verticalAlign=top;spacingLeft=4;spacingRight=4;overflow=hidden;rotatable=0;points=[[0,0.5],[1,0.5]];portConstraint=eastwest;" vertex="1" parent="Vin9euDDo59lXe7KIKDc-76">
          <mxGeometry y="78" width="180" height="26" as="geometry" />
        </mxCell>
        <mxCell id="Vin9euDDo59lXe7KIKDc-78" value="" style="line;strokeWidth=1;fillColor=none;align=left;verticalAlign=middle;spacingTop=-1;spacingLeft=3;spacingRight=3;rotatable=0;labelPosition=right;points=[];portConstraint=eastwest;strokeColor=inherit;" vertex="1" parent="Vin9euDDo59lXe7KIKDc-76">
          <mxGeometry y="104" width="180" height="8" as="geometry" />
        </mxCell>
        <mxCell id="Vin9euDDo59lXe7KIKDc-82" value="+ getPokemonId(): int" style="text;strokeColor=none;fillColor=none;align=left;verticalAlign=top;spacingLeft=4;spacingRight=4;overflow=hidden;rotatable=0;points=[[0,0.5],[1,0.5]];portConstraint=eastwest;" vertex="1" parent="Vin9euDDo59lXe7KIKDc-76">
          <mxGeometry y="112" width="180" height="26" as="geometry" />
        </mxCell>
        <mxCell id="Vin9euDDo59lXe7KIKDc-83" value="+ getEvolvedPokemonId(): int" style="text;strokeColor=none;fillColor=none;align=left;verticalAlign=top;spacingLeft=4;spacingRight=4;overflow=hidden;rotatable=0;points=[[0,0.5],[1,0.5]];portConstraint=eastwest;" vertex="1" parent="Vin9euDDo59lXe7KIKDc-76">
          <mxGeometry y="138" width="180" height="26" as="geometry" />
        </mxCell>
        <mxCell id="Vin9euDDo59lXe7KIKDc-79" value="+ getLevelRequirement(): int" style="text;strokeColor=none;fillColor=none;align=left;verticalAlign=top;spacingLeft=4;spacingRight=4;overflow=hidden;rotatable=0;points=[[0,0.5],[1,0.5]];portConstraint=eastwest;" vertex="1" parent="Vin9euDDo59lXe7KIKDc-76">
          <mxGeometry y="164" width="180" height="26" as="geometry" />
        </mxCell>
        <mxCell id="Vin9euDDo59lXe7KIKDc-84" value="NPC" style="swimlane;fontStyle=1;align=center;verticalAlign=top;childLayout=stackLayout;horizontal=1;startSize=26;horizontalStack=0;resizeParent=1;resizeParentMax=0;resizeLast=0;collapsible=1;marginBottom=0;" vertex="1" parent="1">
          <mxGeometry x="80" y="-342" width="210" height="242" as="geometry" />
        </mxCell>
        <mxCell id="Vin9euDDo59lXe7KIKDc-89" value="- name: String" style="text;strokeColor=none;fillColor=none;align=left;verticalAlign=top;spacingLeft=4;spacingRight=4;overflow=hidden;rotatable=0;points=[[0,0.5],[1,0.5]];portConstraint=eastwest;" vertex="1" parent="Vin9euDDo59lXe7KIKDc-84">
          <mxGeometry y="26" width="210" height="26" as="geometry" />
        </mxCell>
        <mxCell id="Vin9euDDo59lXe7KIKDc-88" value="- dialogue: String" style="text;strokeColor=none;fillColor=none;align=left;verticalAlign=top;spacingLeft=4;spacingRight=4;overflow=hidden;rotatable=0;points=[[0,0.5],[1,0.5]];portConstraint=eastwest;" vertex="1" parent="Vin9euDDo59lXe7KIKDc-84">
          <mxGeometry y="52" width="210" height="26" as="geometry" />
        </mxCell>
        <mxCell id="Vin9euDDo59lXe7KIKDc-85" value="- quests: List&lt;Quest&gt;" style="text;strokeColor=none;fillColor=none;align=left;verticalAlign=top;spacingLeft=4;spacingRight=4;overflow=hidden;rotatable=0;points=[[0,0.5],[1,0.5]];portConstraint=eastwest;" vertex="1" parent="Vin9euDDo59lXe7KIKDc-84">
          <mxGeometry y="78" width="210" height="26" as="geometry" />
        </mxCell>
        <mxCell id="Vin9euDDo59lXe7KIKDc-86" value="" style="line;strokeWidth=1;fillColor=none;align=left;verticalAlign=middle;spacingTop=-1;spacingLeft=3;spacingRight=3;rotatable=0;labelPosition=right;points=[];portConstraint=eastwest;strokeColor=inherit;" vertex="1" parent="Vin9euDDo59lXe7KIKDc-84">
          <mxGeometry y="104" width="210" height="8" as="geometry" />
        </mxCell>
        <mxCell id="Vin9euDDo59lXe7KIKDc-93" value="+ getName(): String" style="text;strokeColor=none;fillColor=none;align=left;verticalAlign=top;spacingLeft=4;spacingRight=4;overflow=hidden;rotatable=0;points=[[0,0.5],[1,0.5]];portConstraint=eastwest;" vertex="1" parent="Vin9euDDo59lXe7KIKDc-84">
          <mxGeometry y="112" width="210" height="26" as="geometry" />
        </mxCell>
        <mxCell id="Vin9euDDo59lXe7KIKDc-92" value="+ getDialogue(): String" style="text;strokeColor=none;fillColor=none;align=left;verticalAlign=top;spacingLeft=4;spacingRight=4;overflow=hidden;rotatable=0;points=[[0,0.5],[1,0.5]];portConstraint=eastwest;" vertex="1" parent="Vin9euDDo59lXe7KIKDc-84">
          <mxGeometry y="138" width="210" height="26" as="geometry" />
        </mxCell>
        <mxCell id="Vin9euDDo59lXe7KIKDc-91" value=" + getQuests(): List&lt;Quest&gt;" style="text;strokeColor=none;fillColor=none;align=left;verticalAlign=top;spacingLeft=4;spacingRight=4;overflow=hidden;rotatable=0;points=[[0,0.5],[1,0.5]];portConstraint=eastwest;" vertex="1" parent="Vin9euDDo59lXe7KIKDc-84">
          <mxGeometry y="164" width="210" height="26" as="geometry" />
        </mxCell>
        <mxCell id="Vin9euDDo59lXe7KIKDc-90" value="+ addQuest(quest: Quest): void" style="text;strokeColor=none;fillColor=none;align=left;verticalAlign=top;spacingLeft=4;spacingRight=4;overflow=hidden;rotatable=0;points=[[0,0.5],[1,0.5]];portConstraint=eastwest;" vertex="1" parent="Vin9euDDo59lXe7KIKDc-84">
          <mxGeometry y="190" width="210" height="26" as="geometry" />
        </mxCell>
        <mxCell id="Vin9euDDo59lXe7KIKDc-87" value="+ removeQuest(quest: Quest): void" style="text;strokeColor=none;fillColor=none;align=left;verticalAlign=top;spacingLeft=4;spacingRight=4;overflow=hidden;rotatable=0;points=[[0,0.5],[1,0.5]];portConstraint=eastwest;" vertex="1" parent="Vin9euDDo59lXe7KIKDc-84">
          <mxGeometry y="216" width="210" height="26" as="geometry" />
        </mxCell>
        <mxCell id="Vin9euDDo59lXe7KIKDc-94" value="Quest" style="swimlane;fontStyle=1;align=center;verticalAlign=top;childLayout=stackLayout;horizontal=1;startSize=26;horizontalStack=0;resizeParent=1;resizeParentMax=0;resizeLast=0;collapsible=1;marginBottom=0;" vertex="1" parent="1">
          <mxGeometry x="-330" y="-480" width="310" height="346" as="geometry" />
        </mxCell>
        <mxCell id="Vin9euDDo59lXe7KIKDc-100" value="- name: String" style="text;strokeColor=none;fillColor=none;align=left;verticalAlign=top;spacingLeft=4;spacingRight=4;overflow=hidden;rotatable=0;points=[[0,0.5],[1,0.5]];portConstraint=eastwest;" vertex="1" parent="Vin9euDDo59lXe7KIKDc-94">
          <mxGeometry y="26" width="310" height="26" as="geometry" />
        </mxCell>
        <mxCell id="Vin9euDDo59lXe7KIKDc-99" value="- description: String" style="text;strokeColor=none;fillColor=none;align=left;verticalAlign=top;spacingLeft=4;spacingRight=4;overflow=hidden;rotatable=0;points=[[0,0.5],[1,0.5]];portConstraint=eastwest;" vertex="1" parent="Vin9euDDo59lXe7KIKDc-94">
          <mxGeometry y="52" width="310" height="26" as="geometry" />
        </mxCell>
        <mxCell id="Vin9euDDo59lXe7KIKDc-98" value="- rewards: List&lt;Item&gt;" style="text;strokeColor=none;fillColor=none;align=left;verticalAlign=top;spacingLeft=4;spacingRight=4;overflow=hidden;rotatable=0;points=[[0,0.5],[1,0.5]];portConstraint=eastwest;" vertex="1" parent="Vin9euDDo59lXe7KIKDc-94">
          <mxGeometry y="78" width="310" height="26" as="geometry" />
        </mxCell>
        <mxCell id="Vin9euDDo59lXe7KIKDc-95" value="- requirements: List&lt;Requirement&gt;" style="text;strokeColor=none;fillColor=none;align=left;verticalAlign=top;spacingLeft=4;spacingRight=4;overflow=hidden;rotatable=0;points=[[0,0.5],[1,0.5]];portConstraint=eastwest;" vertex="1" parent="Vin9euDDo59lXe7KIKDc-94">
          <mxGeometry y="104" width="310" height="26" as="geometry" />
        </mxCell>
        <mxCell id="Vin9euDDo59lXe7KIKDc-96" value="" style="line;strokeWidth=1;fillColor=none;align=left;verticalAlign=middle;spacingTop=-1;spacingLeft=3;spacingRight=3;rotatable=0;labelPosition=right;points=[];portConstraint=eastwest;strokeColor=inherit;" vertex="1" parent="Vin9euDDo59lXe7KIKDc-94">
          <mxGeometry y="130" width="310" height="8" as="geometry" />
        </mxCell>
        <mxCell id="Vin9euDDo59lXe7KIKDc-101" value="+ getName(): String" style="text;strokeColor=none;fillColor=none;align=left;verticalAlign=top;spacingLeft=4;spacingRight=4;overflow=hidden;rotatable=0;points=[[0,0.5],[1,0.5]];portConstraint=eastwest;" vertex="1" parent="Vin9euDDo59lXe7KIKDc-94">
          <mxGeometry y="138" width="310" height="26" as="geometry" />
        </mxCell>
        <mxCell id="Vin9euDDo59lXe7KIKDc-107" value="+ getDescription(): String" style="text;strokeColor=none;fillColor=none;align=left;verticalAlign=top;spacingLeft=4;spacingRight=4;overflow=hidden;rotatable=0;points=[[0,0.5],[1,0.5]];portConstraint=eastwest;" vertex="1" parent="Vin9euDDo59lXe7KIKDc-94">
          <mxGeometry y="164" width="310" height="26" as="geometry" />
        </mxCell>
        <mxCell id="Vin9euDDo59lXe7KIKDc-106" value="+ getRewards(): List&lt;Item&gt;" style="text;strokeColor=none;fillColor=none;align=left;verticalAlign=top;spacingLeft=4;spacingRight=4;overflow=hidden;rotatable=0;points=[[0,0.5],[1,0.5]];portConstraint=eastwest;" vertex="1" parent="Vin9euDDo59lXe7KIKDc-94">
          <mxGeometry y="190" width="310" height="26" as="geometry" />
        </mxCell>
        <mxCell id="Vin9euDDo59lXe7KIKDc-105" value="+ getRequirements(): List&lt;Requirement&gt;" style="text;strokeColor=none;fillColor=none;align=left;verticalAlign=top;spacingLeft=4;spacingRight=4;overflow=hidden;rotatable=0;points=[[0,0.5],[1,0.5]];portConstraint=eastwest;" vertex="1" parent="Vin9euDDo59lXe7KIKDc-94">
          <mxGeometry y="216" width="310" height="26" as="geometry" />
        </mxCell>
        <mxCell id="Vin9euDDo59lXe7KIKDc-104" value="+ addReward(item: Item): void" style="text;strokeColor=none;fillColor=none;align=left;verticalAlign=top;spacingLeft=4;spacingRight=4;overflow=hidden;rotatable=0;points=[[0,0.5],[1,0.5]];portConstraint=eastwest;" vertex="1" parent="Vin9euDDo59lXe7KIKDc-94">
          <mxGeometry y="242" width="310" height="26" as="geometry" />
        </mxCell>
        <mxCell id="Vin9euDDo59lXe7KIKDc-103" value=" + removeReward(item: Item): void" style="text;strokeColor=none;fillColor=none;align=left;verticalAlign=top;spacingLeft=4;spacingRight=4;overflow=hidden;rotatable=0;points=[[0,0.5],[1,0.5]];portConstraint=eastwest;" vertex="1" parent="Vin9euDDo59lXe7KIKDc-94">
          <mxGeometry y="268" width="310" height="26" as="geometry" />
        </mxCell>
        <mxCell id="Vin9euDDo59lXe7KIKDc-102" value="+ addRequirement(requirement: Requirement): void" style="text;strokeColor=none;fillColor=none;align=left;verticalAlign=top;spacingLeft=4;spacingRight=4;overflow=hidden;rotatable=0;points=[[0,0.5],[1,0.5]];portConstraint=eastwest;" vertex="1" parent="Vin9euDDo59lXe7KIKDc-94">
          <mxGeometry y="294" width="310" height="26" as="geometry" />
        </mxCell>
        <mxCell id="Vin9euDDo59lXe7KIKDc-97" value="+ removeRequirement(requirement: Requirement): void" style="text;strokeColor=none;fillColor=none;align=left;verticalAlign=top;spacingLeft=4;spacingRight=4;overflow=hidden;rotatable=0;points=[[0,0.5],[1,0.5]];portConstraint=eastwest;" vertex="1" parent="Vin9euDDo59lXe7KIKDc-94">
          <mxGeometry y="320" width="310" height="26" as="geometry" />
        </mxCell>
        <mxCell id="Vin9euDDo59lXe7KIKDc-108" value="Requirement" style="swimlane;fontStyle=1;align=center;verticalAlign=top;childLayout=stackLayout;horizontal=1;startSize=26;horizontalStack=0;resizeParent=1;resizeParentMax=0;resizeLast=0;collapsible=1;marginBottom=0;" vertex="1" parent="1">
          <mxGeometry x="210" y="510" width="190" height="138" as="geometry" />
        </mxCell>
        <mxCell id="Vin9euDDo59lXe7KIKDc-112" value="- type: RequirementType" style="text;strokeColor=none;fillColor=none;align=left;verticalAlign=top;spacingLeft=4;spacingRight=4;overflow=hidden;rotatable=0;points=[[0,0.5],[1,0.5]];portConstraint=eastwest;" vertex="1" parent="Vin9euDDo59lXe7KIKDc-108">
          <mxGeometry y="26" width="190" height="26" as="geometry" />
        </mxCell>
        <mxCell id="Vin9euDDo59lXe7KIKDc-109" value="- value: int" style="text;strokeColor=none;fillColor=none;align=left;verticalAlign=top;spacingLeft=4;spacingRight=4;overflow=hidden;rotatable=0;points=[[0,0.5],[1,0.5]];portConstraint=eastwest;" vertex="1" parent="Vin9euDDo59lXe7KIKDc-108">
          <mxGeometry y="52" width="190" height="26" as="geometry" />
        </mxCell>
        <mxCell id="Vin9euDDo59lXe7KIKDc-110" value="" style="line;strokeWidth=1;fillColor=none;align=left;verticalAlign=middle;spacingTop=-1;spacingLeft=3;spacingRight=3;rotatable=0;labelPosition=right;points=[];portConstraint=eastwest;strokeColor=inherit;" vertex="1" parent="Vin9euDDo59lXe7KIKDc-108">
          <mxGeometry y="78" width="190" height="8" as="geometry" />
        </mxCell>
        <mxCell id="Vin9euDDo59lXe7KIKDc-113" value="+ getType(): RequirementType" style="text;strokeColor=none;fillColor=none;align=left;verticalAlign=top;spacingLeft=4;spacingRight=4;overflow=hidden;rotatable=0;points=[[0,0.5],[1,0.5]];portConstraint=eastwest;" vertex="1" parent="Vin9euDDo59lXe7KIKDc-108">
          <mxGeometry y="86" width="190" height="26" as="geometry" />
        </mxCell>
        <mxCell id="Vin9euDDo59lXe7KIKDc-111" value="+ getValue(): int" style="text;strokeColor=none;fillColor=none;align=left;verticalAlign=top;spacingLeft=4;spacingRight=4;overflow=hidden;rotatable=0;points=[[0,0.5],[1,0.5]];portConstraint=eastwest;" vertex="1" parent="Vin9euDDo59lXe7KIKDc-108">
          <mxGeometry y="112" width="190" height="26" as="geometry" />
        </mxCell>
        <mxCell id="Vin9euDDo59lXe7KIKDc-188" style="edgeStyle=orthogonalEdgeStyle;rounded=0;orthogonalLoop=1;jettySize=auto;html=1;" edge="1" parent="1" source="Vin9euDDo59lXe7KIKDc-114" target="Vin9euDDo59lXe7KIKDc-67">
          <mxGeometry relative="1" as="geometry" />
        </mxCell>
        <mxCell id="Vin9euDDo59lXe7KIKDc-114" value="ItemType" style="swimlane;fontStyle=1;align=center;verticalAlign=top;childLayout=stackLayout;horizontal=1;startSize=26;horizontalStack=0;resizeParent=1;resizeParentMax=0;resizeLast=0;collapsible=1;marginBottom=0;" vertex="1" parent="1">
          <mxGeometry x="800" y="-100" width="160" height="86" as="geometry" />
        </mxCell>
        <mxCell id="Vin9euDDo59lXe7KIKDc-115" value="- type: String" style="text;strokeColor=none;fillColor=none;align=left;verticalAlign=top;spacingLeft=4;spacingRight=4;overflow=hidden;rotatable=0;points=[[0,0.5],[1,0.5]];portConstraint=eastwest;" vertex="1" parent="Vin9euDDo59lXe7KIKDc-114">
          <mxGeometry y="26" width="160" height="26" as="geometry" />
        </mxCell>
        <mxCell id="Vin9euDDo59lXe7KIKDc-116" value="" style="line;strokeWidth=1;fillColor=none;align=left;verticalAlign=middle;spacingTop=-1;spacingLeft=3;spacingRight=3;rotatable=0;labelPosition=right;points=[];portConstraint=eastwest;strokeColor=inherit;" vertex="1" parent="Vin9euDDo59lXe7KIKDc-114">
          <mxGeometry y="52" width="160" height="8" as="geometry" />
        </mxCell>
        <mxCell id="Vin9euDDo59lXe7KIKDc-117" value="+ getType(): String" style="text;strokeColor=none;fillColor=none;align=left;verticalAlign=top;spacingLeft=4;spacingRight=4;overflow=hidden;rotatable=0;points=[[0,0.5],[1,0.5]];portConstraint=eastwest;" vertex="1" parent="Vin9euDDo59lXe7KIKDc-114">
          <mxGeometry y="60" width="160" height="26" as="geometry" />
        </mxCell>
        <mxCell id="Vin9euDDo59lXe7KIKDc-189" style="edgeStyle=orthogonalEdgeStyle;rounded=0;orthogonalLoop=1;jettySize=auto;html=1;exitX=0.5;exitY=0;exitDx=0;exitDy=0;" edge="1" parent="1" source="Vin9euDDo59lXe7KIKDc-119" target="Vin9euDDo59lXe7KIKDc-48">
          <mxGeometry relative="1" as="geometry">
            <Array as="points">
              <mxPoint x="915" y="165" />
            </Array>
          </mxGeometry>
        </mxCell>
        <mxCell id="Vin9euDDo59lXe7KIKDc-119" value="Pokemon" style="swimlane;fontStyle=1;align=center;verticalAlign=top;childLayout=stackLayout;horizontal=1;startSize=26;horizontalStack=0;resizeParent=1;resizeParentMax=0;resizeLast=0;collapsible=1;marginBottom=0;" vertex="1" parent="1">
          <mxGeometry x="810" y="140" width="210" height="398" as="geometry" />
        </mxCell>
        <mxCell id="Vin9euDDo59lXe7KIKDc-125" value="- species: String" style="text;strokeColor=none;fillColor=none;align=left;verticalAlign=top;spacingLeft=4;spacingRight=4;overflow=hidden;rotatable=0;points=[[0,0.5],[1,0.5]];portConstraint=eastwest;" vertex="1" parent="Vin9euDDo59lXe7KIKDc-119">
          <mxGeometry y="26" width="210" height="26" as="geometry" />
        </mxCell>
        <mxCell id="Vin9euDDo59lXe7KIKDc-124" value="- level: int" style="text;strokeColor=none;fillColor=none;align=left;verticalAlign=top;spacingLeft=4;spacingRight=4;overflow=hidden;rotatable=0;points=[[0,0.5],[1,0.5]];portConstraint=eastwest;" vertex="1" parent="Vin9euDDo59lXe7KIKDc-119">
          <mxGeometry y="52" width="210" height="26" as="geometry" />
        </mxCell>
        <mxCell id="Vin9euDDo59lXe7KIKDc-123" value="- type: List&lt;String&gt;" style="text;strokeColor=none;fillColor=none;align=left;verticalAlign=top;spacingLeft=4;spacingRight=4;overflow=hidden;rotatable=0;points=[[0,0.5],[1,0.5]];portConstraint=eastwest;" vertex="1" parent="Vin9euDDo59lXe7KIKDc-119">
          <mxGeometry y="78" width="210" height="26" as="geometry" />
        </mxCell>
        <mxCell id="Vin9euDDo59lXe7KIKDc-157" value="- moves: List&lt;Move&gt;" style="text;strokeColor=none;fillColor=none;align=left;verticalAlign=top;spacingLeft=4;spacingRight=4;overflow=hidden;rotatable=0;points=[[0,0.5],[1,0.5]];portConstraint=eastwest;" vertex="1" parent="Vin9euDDo59lXe7KIKDc-119">
          <mxGeometry y="104" width="210" height="26" as="geometry" />
        </mxCell>
        <mxCell id="Vin9euDDo59lXe7KIKDc-158" value="- attack: int " style="text;strokeColor=none;fillColor=none;align=left;verticalAlign=top;spacingLeft=4;spacingRight=4;overflow=hidden;rotatable=0;points=[[0,0.5],[1,0.5]];portConstraint=eastwest;" vertex="1" parent="Vin9euDDo59lXe7KIKDc-119">
          <mxGeometry y="130" width="210" height="26" as="geometry" />
        </mxCell>
        <mxCell id="Vin9euDDo59lXe7KIKDc-120" value="- defense: int" style="text;strokeColor=none;fillColor=none;align=left;verticalAlign=top;spacingLeft=4;spacingRight=4;overflow=hidden;rotatable=0;points=[[0,0.5],[1,0.5]];portConstraint=eastwest;" vertex="1" parent="Vin9euDDo59lXe7KIKDc-119">
          <mxGeometry y="156" width="210" height="26" as="geometry" />
        </mxCell>
        <mxCell id="Vin9euDDo59lXe7KIKDc-121" value="" style="line;strokeWidth=1;fillColor=none;align=left;verticalAlign=middle;spacingTop=-1;spacingLeft=3;spacingRight=3;rotatable=0;labelPosition=right;points=[];portConstraint=eastwest;strokeColor=inherit;" vertex="1" parent="Vin9euDDo59lXe7KIKDc-119">
          <mxGeometry y="182" width="210" height="8" as="geometry" />
        </mxCell>
        <mxCell id="Vin9euDDo59lXe7KIKDc-126" value="+ getSpecies(): String" style="text;strokeColor=none;fillColor=none;align=left;verticalAlign=top;spacingLeft=4;spacingRight=4;overflow=hidden;rotatable=0;points=[[0,0.5],[1,0.5]];portConstraint=eastwest;" vertex="1" parent="Vin9euDDo59lXe7KIKDc-119">
          <mxGeometry y="190" width="210" height="26" as="geometry" />
        </mxCell>
        <mxCell id="Vin9euDDo59lXe7KIKDc-130" value="+ getLevel(): int" style="text;strokeColor=none;fillColor=none;align=left;verticalAlign=top;spacingLeft=4;spacingRight=4;overflow=hidden;rotatable=0;points=[[0,0.5],[1,0.5]];portConstraint=eastwest;" vertex="1" parent="Vin9euDDo59lXe7KIKDc-119">
          <mxGeometry y="216" width="210" height="26" as="geometry" />
        </mxCell>
        <mxCell id="Vin9euDDo59lXe7KIKDc-129" value="+ getType(): List&lt;String&gt;" style="text;strokeColor=none;fillColor=none;align=left;verticalAlign=top;spacingLeft=4;spacingRight=4;overflow=hidden;rotatable=0;points=[[0,0.5],[1,0.5]];portConstraint=eastwest;" vertex="1" parent="Vin9euDDo59lXe7KIKDc-119">
          <mxGeometry y="242" width="210" height="26" as="geometry" />
        </mxCell>
        <mxCell id="Vin9euDDo59lXe7KIKDc-128" value="+ getMoves(): List&lt;Move&gt;" style="text;strokeColor=none;fillColor=none;align=left;verticalAlign=top;spacingLeft=4;spacingRight=4;overflow=hidden;rotatable=0;points=[[0,0.5],[1,0.5]];portConstraint=eastwest;" vertex="1" parent="Vin9euDDo59lXe7KIKDc-119">
          <mxGeometry y="268" width="210" height="26" as="geometry" />
        </mxCell>
        <mxCell id="Vin9euDDo59lXe7KIKDc-127" value="+ getAttack(): int " style="text;strokeColor=none;fillColor=none;align=left;verticalAlign=top;spacingLeft=4;spacingRight=4;overflow=hidden;rotatable=0;points=[[0,0.5],[1,0.5]];portConstraint=eastwest;" vertex="1" parent="Vin9euDDo59lXe7KIKDc-119">
          <mxGeometry y="294" width="210" height="26" as="geometry" />
        </mxCell>
        <mxCell id="Vin9euDDo59lXe7KIKDc-160" value="+ getDefense(): int  " style="text;strokeColor=none;fillColor=none;align=left;verticalAlign=top;spacingLeft=4;spacingRight=4;overflow=hidden;rotatable=0;points=[[0,0.5],[1,0.5]];portConstraint=eastwest;" vertex="1" parent="Vin9euDDo59lXe7KIKDc-119">
          <mxGeometry y="320" width="210" height="26" as="geometry" />
        </mxCell>
        <mxCell id="Vin9euDDo59lXe7KIKDc-159" value="+ setAttack(attack: int): void" style="text;strokeColor=none;fillColor=none;align=left;verticalAlign=top;spacingLeft=4;spacingRight=4;overflow=hidden;rotatable=0;points=[[0,0.5],[1,0.5]];portConstraint=eastwest;" vertex="1" parent="Vin9euDDo59lXe7KIKDc-119">
          <mxGeometry y="346" width="210" height="26" as="geometry" />
        </mxCell>
        <mxCell id="Vin9euDDo59lXe7KIKDc-122" value="+ setDefense(defense: int): void" style="text;strokeColor=none;fillColor=none;align=left;verticalAlign=top;spacingLeft=4;spacingRight=4;overflow=hidden;rotatable=0;points=[[0,0.5],[1,0.5]];portConstraint=eastwest;" vertex="1" parent="Vin9euDDo59lXe7KIKDc-119">
          <mxGeometry y="372" width="210" height="26" as="geometry" />
        </mxCell>
        <mxCell id="Vin9euDDo59lXe7KIKDc-132" value="Move" style="swimlane;fontStyle=1;align=center;verticalAlign=top;childLayout=stackLayout;horizontal=1;startSize=26;horizontalStack=0;resizeParent=1;resizeParentMax=0;resizeLast=0;collapsible=1;marginBottom=0;" vertex="1" parent="1">
          <mxGeometry x="835" y="580" width="160" height="190" as="geometry" />
        </mxCell>
        <mxCell id="Vin9euDDo59lXe7KIKDc-133" value="- name: String" style="text;strokeColor=none;fillColor=none;align=left;verticalAlign=top;spacingLeft=4;spacingRight=4;overflow=hidden;rotatable=0;points=[[0,0.5],[1,0.5]];portConstraint=eastwest;" vertex="1" parent="Vin9euDDo59lXe7KIKDc-132">
          <mxGeometry y="26" width="160" height="26" as="geometry" />
        </mxCell>
        <mxCell id="Vin9euDDo59lXe7KIKDc-138" value="- attack: Attack " style="text;strokeColor=none;fillColor=none;align=left;verticalAlign=top;spacingLeft=4;spacingRight=4;overflow=hidden;rotatable=0;points=[[0,0.5],[1,0.5]];portConstraint=eastwest;" vertex="1" parent="Vin9euDDo59lXe7KIKDc-132">
          <mxGeometry y="52" width="160" height="26" as="geometry" />
        </mxCell>
        <mxCell id="Vin9euDDo59lXe7KIKDc-136" value="- defense: Defense" style="text;strokeColor=none;fillColor=none;align=left;verticalAlign=top;spacingLeft=4;spacingRight=4;overflow=hidden;rotatable=0;points=[[0,0.5],[1,0.5]];portConstraint=eastwest;" vertex="1" parent="Vin9euDDo59lXe7KIKDc-132">
          <mxGeometry y="78" width="160" height="26" as="geometry" />
        </mxCell>
        <mxCell id="Vin9euDDo59lXe7KIKDc-134" value="" style="line;strokeWidth=1;fillColor=none;align=left;verticalAlign=middle;spacingTop=-1;spacingLeft=3;spacingRight=3;rotatable=0;labelPosition=right;points=[];portConstraint=eastwest;strokeColor=inherit;" vertex="1" parent="Vin9euDDo59lXe7KIKDc-132">
          <mxGeometry y="104" width="160" height="8" as="geometry" />
        </mxCell>
        <mxCell id="Vin9euDDo59lXe7KIKDc-135" value="+ getName(): String" style="text;strokeColor=none;fillColor=none;align=left;verticalAlign=top;spacingLeft=4;spacingRight=4;overflow=hidden;rotatable=0;points=[[0,0.5],[1,0.5]];portConstraint=eastwest;" vertex="1" parent="Vin9euDDo59lXe7KIKDc-132">
          <mxGeometry y="112" width="160" height="26" as="geometry" />
        </mxCell>
        <mxCell id="Vin9euDDo59lXe7KIKDc-141" value="+ getAttack(): Attack" style="text;strokeColor=none;fillColor=none;align=left;verticalAlign=top;spacingLeft=4;spacingRight=4;overflow=hidden;rotatable=0;points=[[0,0.5],[1,0.5]];portConstraint=eastwest;" vertex="1" parent="Vin9euDDo59lXe7KIKDc-132">
          <mxGeometry y="138" width="160" height="26" as="geometry" />
        </mxCell>
        <mxCell id="Vin9euDDo59lXe7KIKDc-140" value="+ getDefense(): Defense" style="text;strokeColor=none;fillColor=none;align=left;verticalAlign=top;spacingLeft=4;spacingRight=4;overflow=hidden;rotatable=0;points=[[0,0.5],[1,0.5]];portConstraint=eastwest;" vertex="1" parent="Vin9euDDo59lXe7KIKDc-132">
          <mxGeometry y="164" width="160" height="26" as="geometry" />
        </mxCell>
        <mxCell id="Vin9euDDo59lXe7KIKDc-142" value="Attack" style="swimlane;fontStyle=1;align=center;verticalAlign=top;childLayout=stackLayout;horizontal=1;startSize=26;horizontalStack=0;resizeParent=1;resizeParentMax=0;resizeLast=0;collapsible=1;marginBottom=0;" vertex="1" parent="1">
          <mxGeometry x="950" y="820" width="160" height="190" as="geometry" />
        </mxCell>
        <mxCell id="Vin9euDDo59lXe7KIKDc-143" value="- type: String " style="text;strokeColor=none;fillColor=none;align=left;verticalAlign=top;spacingLeft=4;spacingRight=4;overflow=hidden;rotatable=0;points=[[0,0.5],[1,0.5]];portConstraint=eastwest;" vertex="1" parent="Vin9euDDo59lXe7KIKDc-142">
          <mxGeometry y="26" width="160" height="26" as="geometry" />
        </mxCell>
        <mxCell id="Vin9euDDo59lXe7KIKDc-152" value="- power: int" style="text;strokeColor=none;fillColor=none;align=left;verticalAlign=top;spacingLeft=4;spacingRight=4;overflow=hidden;rotatable=0;points=[[0,0.5],[1,0.5]];portConstraint=eastwest;" vertex="1" parent="Vin9euDDo59lXe7KIKDc-142">
          <mxGeometry y="52" width="160" height="26" as="geometry" />
        </mxCell>
        <mxCell id="Vin9euDDo59lXe7KIKDc-151" value="- accuracy: int" style="text;strokeColor=none;fillColor=none;align=left;verticalAlign=top;spacingLeft=4;spacingRight=4;overflow=hidden;rotatable=0;points=[[0,0.5],[1,0.5]];portConstraint=eastwest;" vertex="1" parent="Vin9euDDo59lXe7KIKDc-142">
          <mxGeometry y="78" width="160" height="26" as="geometry" />
        </mxCell>
        <mxCell id="Vin9euDDo59lXe7KIKDc-144" value="" style="line;strokeWidth=1;fillColor=none;align=left;verticalAlign=middle;spacingTop=-1;spacingLeft=3;spacingRight=3;rotatable=0;labelPosition=right;points=[];portConstraint=eastwest;strokeColor=inherit;" vertex="1" parent="Vin9euDDo59lXe7KIKDc-142">
          <mxGeometry y="104" width="160" height="8" as="geometry" />
        </mxCell>
        <mxCell id="Vin9euDDo59lXe7KIKDc-153" value="+ getType(): String" style="text;strokeColor=none;fillColor=none;align=left;verticalAlign=top;spacingLeft=4;spacingRight=4;overflow=hidden;rotatable=0;points=[[0,0.5],[1,0.5]];portConstraint=eastwest;" vertex="1" parent="Vin9euDDo59lXe7KIKDc-142">
          <mxGeometry y="112" width="160" height="26" as="geometry" />
        </mxCell>
        <mxCell id="Vin9euDDo59lXe7KIKDc-154" value="+ getPower(): int" style="text;strokeColor=none;fillColor=none;align=left;verticalAlign=top;spacingLeft=4;spacingRight=4;overflow=hidden;rotatable=0;points=[[0,0.5],[1,0.5]];portConstraint=eastwest;" vertex="1" parent="Vin9euDDo59lXe7KIKDc-142">
          <mxGeometry y="138" width="160" height="26" as="geometry" />
        </mxCell>
        <mxCell id="Vin9euDDo59lXe7KIKDc-145" value="+ getAccuracy(): int" style="text;strokeColor=none;fillColor=none;align=left;verticalAlign=top;spacingLeft=4;spacingRight=4;overflow=hidden;rotatable=0;points=[[0,0.5],[1,0.5]];portConstraint=eastwest;" vertex="1" parent="Vin9euDDo59lXe7KIKDc-142">
          <mxGeometry y="164" width="160" height="26" as="geometry" />
        </mxCell>
        <mxCell id="Vin9euDDo59lXe7KIKDc-146" value="Defense" style="swimlane;fontStyle=1;align=center;verticalAlign=top;childLayout=stackLayout;horizontal=1;startSize=26;horizontalStack=0;resizeParent=1;resizeParentMax=0;resizeLast=0;collapsible=1;marginBottom=0;" vertex="1" parent="1">
          <mxGeometry x="710" y="830" width="160" height="138" as="geometry" />
        </mxCell>
        <mxCell id="Vin9euDDo59lXe7KIKDc-147" value="- type: String  " style="text;strokeColor=none;fillColor=none;align=left;verticalAlign=top;spacingLeft=4;spacingRight=4;overflow=hidden;rotatable=0;points=[[0,0.5],[1,0.5]];portConstraint=eastwest;" vertex="1" parent="Vin9euDDo59lXe7KIKDc-146">
          <mxGeometry y="26" width="160" height="26" as="geometry" />
        </mxCell>
        <mxCell id="Vin9euDDo59lXe7KIKDc-155" value="- value: int" style="text;strokeColor=none;fillColor=none;align=left;verticalAlign=top;spacingLeft=4;spacingRight=4;overflow=hidden;rotatable=0;points=[[0,0.5],[1,0.5]];portConstraint=eastwest;" vertex="1" parent="Vin9euDDo59lXe7KIKDc-146">
          <mxGeometry y="52" width="160" height="26" as="geometry" />
        </mxCell>
        <mxCell id="Vin9euDDo59lXe7KIKDc-148" value="" style="line;strokeWidth=1;fillColor=none;align=left;verticalAlign=middle;spacingTop=-1;spacingLeft=3;spacingRight=3;rotatable=0;labelPosition=right;points=[];portConstraint=eastwest;strokeColor=inherit;" vertex="1" parent="Vin9euDDo59lXe7KIKDc-146">
          <mxGeometry y="78" width="160" height="8" as="geometry" />
        </mxCell>
        <mxCell id="Vin9euDDo59lXe7KIKDc-149" value="+ getType(): String " style="text;strokeColor=none;fillColor=none;align=left;verticalAlign=top;spacingLeft=4;spacingRight=4;overflow=hidden;rotatable=0;points=[[0,0.5],[1,0.5]];portConstraint=eastwest;" vertex="1" parent="Vin9euDDo59lXe7KIKDc-146">
          <mxGeometry y="86" width="160" height="26" as="geometry" />
        </mxCell>
        <mxCell id="Vin9euDDo59lXe7KIKDc-156" value="+ getValue(): int" style="text;strokeColor=none;fillColor=none;align=left;verticalAlign=top;spacingLeft=4;spacingRight=4;overflow=hidden;rotatable=0;points=[[0,0.5],[1,0.5]];portConstraint=eastwest;" vertex="1" parent="Vin9euDDo59lXe7KIKDc-146">
          <mxGeometry y="112" width="160" height="26" as="geometry" />
        </mxCell>
        <mxCell id="Vin9euDDo59lXe7KIKDc-161" value="Storage" style="swimlane;fontStyle=1;align=center;verticalAlign=top;childLayout=stackLayout;horizontal=1;startSize=26;horizontalStack=0;resizeParent=1;resizeParentMax=0;resizeLast=0;collapsible=1;marginBottom=0;" vertex="1" parent="1">
          <mxGeometry x="440" y="-410" width="260" height="320" as="geometry" />
        </mxCell>
        <mxCell id="Vin9euDDo59lXe7KIKDc-166" value="- capacity: int" style="text;strokeColor=none;fillColor=none;align=left;verticalAlign=top;spacingLeft=4;spacingRight=4;overflow=hidden;rotatable=0;points=[[0,0.5],[1,0.5]];portConstraint=eastwest;" vertex="1" parent="Vin9euDDo59lXe7KIKDc-161">
          <mxGeometry y="26" width="260" height="26" as="geometry" />
        </mxCell>
        <mxCell id="Vin9euDDo59lXe7KIKDc-165" value="- items: List&lt;Item&gt;" style="text;strokeColor=none;fillColor=none;align=left;verticalAlign=top;spacingLeft=4;spacingRight=4;overflow=hidden;rotatable=0;points=[[0,0.5],[1,0.5]];portConstraint=eastwest;" vertex="1" parent="Vin9euDDo59lXe7KIKDc-161">
          <mxGeometry y="52" width="260" height="26" as="geometry" />
        </mxCell>
        <mxCell id="Vin9euDDo59lXe7KIKDc-162" value="- pokemons: List&lt;Pokemon&gt;" style="text;strokeColor=none;fillColor=none;align=left;verticalAlign=top;spacingLeft=4;spacingRight=4;overflow=hidden;rotatable=0;points=[[0,0.5],[1,0.5]];portConstraint=eastwest;" vertex="1" parent="Vin9euDDo59lXe7KIKDc-161">
          <mxGeometry y="78" width="260" height="26" as="geometry" />
        </mxCell>
        <mxCell id="Vin9euDDo59lXe7KIKDc-163" value="" style="line;strokeWidth=1;fillColor=none;align=left;verticalAlign=middle;spacingTop=-1;spacingLeft=3;spacingRight=3;rotatable=0;labelPosition=right;points=[];portConstraint=eastwest;strokeColor=inherit;" vertex="1" parent="Vin9euDDo59lXe7KIKDc-161">
          <mxGeometry y="104" width="260" height="8" as="geometry" />
        </mxCell>
        <mxCell id="Vin9euDDo59lXe7KIKDc-173" value="+ getCapacity(): int" style="text;strokeColor=none;fillColor=none;align=left;verticalAlign=top;spacingLeft=4;spacingRight=4;overflow=hidden;rotatable=0;points=[[0,0.5],[1,0.5]];portConstraint=eastwest;" vertex="1" parent="Vin9euDDo59lXe7KIKDc-161">
          <mxGeometry y="112" width="260" height="26" as="geometry" />
        </mxCell>
        <mxCell id="Vin9euDDo59lXe7KIKDc-172" value="+ getItems(): List&lt;Item&gt;" style="text;strokeColor=none;fillColor=none;align=left;verticalAlign=top;spacingLeft=4;spacingRight=4;overflow=hidden;rotatable=0;points=[[0,0.5],[1,0.5]];portConstraint=eastwest;" vertex="1" parent="Vin9euDDo59lXe7KIKDc-161">
          <mxGeometry y="138" width="260" height="26" as="geometry" />
        </mxCell>
        <mxCell id="Vin9euDDo59lXe7KIKDc-171" value="+ getPokemons(): List&lt;Pokemon&gt;" style="text;strokeColor=none;fillColor=none;align=left;verticalAlign=top;spacingLeft=4;spacingRight=4;overflow=hidden;rotatable=0;points=[[0,0.5],[1,0.5]];portConstraint=eastwest;" vertex="1" parent="Vin9euDDo59lXe7KIKDc-161">
          <mxGeometry y="164" width="260" height="26" as="geometry" />
        </mxCell>
        <mxCell id="Vin9euDDo59lXe7KIKDc-170" value="+ addItem(item: Item): void" style="text;strokeColor=none;fillColor=none;align=left;verticalAlign=top;spacingLeft=4;spacingRight=4;overflow=hidden;rotatable=0;points=[[0,0.5],[1,0.5]];portConstraint=eastwest;" vertex="1" parent="Vin9euDDo59lXe7KIKDc-161">
          <mxGeometry y="190" width="260" height="26" as="geometry" />
        </mxCell>
        <mxCell id="Vin9euDDo59lXe7KIKDc-169" value="+ removeItem(item: Item): void" style="text;strokeColor=none;fillColor=none;align=left;verticalAlign=top;spacingLeft=4;spacingRight=4;overflow=hidden;rotatable=0;points=[[0,0.5],[1,0.5]];portConstraint=eastwest;" vertex="1" parent="Vin9euDDo59lXe7KIKDc-161">
          <mxGeometry y="216" width="260" height="26" as="geometry" />
        </mxCell>
        <mxCell id="Vin9euDDo59lXe7KIKDc-168" value="+ addPokemon(pokemon: Pokemon): void" style="text;strokeColor=none;fillColor=none;align=left;verticalAlign=top;spacingLeft=4;spacingRight=4;overflow=hidden;rotatable=0;points=[[0,0.5],[1,0.5]];portConstraint=eastwest;" vertex="1" parent="Vin9euDDo59lXe7KIKDc-161">
          <mxGeometry y="242" width="260" height="26" as="geometry" />
        </mxCell>
        <mxCell id="Vin9euDDo59lXe7KIKDc-167" value="+ removePokemon(pokemon: Pokemon): void" style="text;strokeColor=none;fillColor=none;align=left;verticalAlign=top;spacingLeft=4;spacingRight=4;overflow=hidden;rotatable=0;points=[[0,0.5],[1,0.5]];portConstraint=eastwest;" vertex="1" parent="Vin9euDDo59lXe7KIKDc-161">
          <mxGeometry y="268" width="260" height="26" as="geometry" />
        </mxCell>
        <mxCell id="Vin9euDDo59lXe7KIKDc-164" value="+ isFull(): boolean" style="text;strokeColor=none;fillColor=none;align=left;verticalAlign=top;spacingLeft=4;spacingRight=4;overflow=hidden;rotatable=0;points=[[0,0.5],[1,0.5]];portConstraint=eastwest;" vertex="1" parent="Vin9euDDo59lXe7KIKDc-161">
          <mxGeometry y="294" width="260" height="26" as="geometry" />
        </mxCell>
        <mxCell id="Vin9euDDo59lXe7KIKDc-175" value="dispatch" style="html=1;verticalAlign=bottom;endArrow=block;edgeStyle=elbowEdgeStyle;elbow=vertical;curved=0;rounded=0;" edge="1" parent="1" source="Vin9euDDo59lXe7KIKDc-94" target="Vin9euDDo59lXe7KIKDc-84">
          <mxGeometry width="80" relative="1" as="geometry">
            <mxPoint x="350" y="-10" as="sourcePoint" />
            <mxPoint x="430" y="-10" as="targetPoint" />
          </mxGeometry>
        </mxCell>
        <mxCell id="Vin9euDDo59lXe7KIKDc-179" value="" style="edgeStyle=orthogonalEdgeStyle;rounded=0;orthogonalLoop=1;jettySize=auto;html=1;" edge="1" parent="1" source="Vin9euDDo59lXe7KIKDc-109" target="Vin9euDDo59lXe7KIKDc-82">
          <mxGeometry relative="1" as="geometry" />
        </mxCell>
        <mxCell id="Vin9euDDo59lXe7KIKDc-180" value="" style="endArrow=block;endSize=16;endFill=0;html=1;rounded=0;" edge="1" parent="1" source="Vin9euDDo59lXe7KIKDc-76" target="Vin9euDDo59lXe7KIKDc-119">
          <mxGeometry width="160" relative="1" as="geometry">
            <mxPoint x="590" y="350" as="sourcePoint" />
            <mxPoint x="750" y="350" as="targetPoint" />
          </mxGeometry>
        </mxCell>
        <mxCell id="Vin9euDDo59lXe7KIKDc-181" value="" style="endArrow=block;endFill=1;html=1;edgeStyle=orthogonalEdgeStyle;align=left;verticalAlign=top;rounded=0;exitX=0.5;exitY=0;exitDx=0;exitDy=0;" edge="1" parent="1" source="Vin9euDDo59lXe7KIKDc-146" target="Vin9euDDo59lXe7KIKDc-132">
          <mxGeometry x="-1" relative="1" as="geometry">
            <mxPoint x="590" y="700" as="sourcePoint" />
            <mxPoint x="750" y="700" as="targetPoint" />
            <mxPoint as="offset" />
          </mxGeometry>
        </mxCell>
        <mxCell id="Vin9euDDo59lXe7KIKDc-182" value="1" style="edgeLabel;resizable=0;html=1;align=left;verticalAlign=bottom;" connectable="0" vertex="1" parent="Vin9euDDo59lXe7KIKDc-181">
          <mxGeometry x="-1" relative="1" as="geometry" />
        </mxCell>
        <mxCell id="Vin9euDDo59lXe7KIKDc-183" value="" style="endArrow=none;html=1;edgeStyle=orthogonalEdgeStyle;rounded=0;exitX=0.5;exitY=0;exitDx=0;exitDy=0;" edge="1" parent="1" source="Vin9euDDo59lXe7KIKDc-142" target="Vin9euDDo59lXe7KIKDc-132">
          <mxGeometry relative="1" as="geometry">
            <mxPoint x="590" y="700" as="sourcePoint" />
            <mxPoint x="750" y="700" as="targetPoint" />
            <Array as="points">
              <mxPoint x="1030" y="800" />
              <mxPoint x="915" y="800" />
            </Array>
          </mxGeometry>
        </mxCell>
        <mxCell id="Vin9euDDo59lXe7KIKDc-185" value="child" style="edgeLabel;resizable=0;html=1;align=right;verticalAlign=bottom;" connectable="0" vertex="1" parent="Vin9euDDo59lXe7KIKDc-183">
          <mxGeometry x="1" relative="1" as="geometry" />
        </mxCell>
        <mxCell id="Vin9euDDo59lXe7KIKDc-191" value="" style="endArrow=block;endSize=16;endFill=0;html=1;rounded=0;" edge="1" parent="1" source="Vin9euDDo59lXe7KIKDc-132" target="Vin9euDDo59lXe7KIKDc-119">
          <mxGeometry width="160" relative="1" as="geometry">
            <mxPoint x="480" y="530" as="sourcePoint" />
            <mxPoint x="640" y="530" as="targetPoint" />
          </mxGeometry>
        </mxCell>
        <mxCell id="Vin9euDDo59lXe7KIKDc-193" value="" style="endArrow=block;endSize=16;endFill=0;html=1;rounded=0;" edge="1" parent="1" source="Vin9euDDo59lXe7KIKDc-48" target="Vin9euDDo59lXe7KIKDc-31">
          <mxGeometry width="160" relative="1" as="geometry">
            <mxPoint x="410" y="40" as="sourcePoint" />
            <mxPoint x="570" y="40" as="targetPoint" />
          </mxGeometry>
        </mxCell>
        <mxCell id="Vin9euDDo59lXe7KIKDc-194" value="" style="endArrow=block;endSize=16;endFill=0;html=1;rounded=0;" edge="1" parent="1" source="Vin9euDDo59lXe7KIKDc-84" target="Vin9euDDo59lXe7KIKDc-31">
          <mxGeometry width="160" relative="1" as="geometry">
            <mxPoint x="470" y="171" as="sourcePoint" />
            <mxPoint x="360" y="168" as="targetPoint" />
          </mxGeometry>
        </mxCell>
        <mxCell id="Vin9euDDo59lXe7KIKDc-196" value="" style="endArrow=block;endSize=16;endFill=0;html=1;rounded=0;" edge="1" parent="1" source="Vin9euDDo59lXe7KIKDc-161" target="Vin9euDDo59lXe7KIKDc-31">
          <mxGeometry width="160" relative="1" as="geometry">
            <mxPoint x="470" y="171" as="sourcePoint" />
            <mxPoint x="360" y="168" as="targetPoint" />
          </mxGeometry>
        </mxCell>
      </root>
    </mxGraphModel>
  </diagram>
</mxfile>
